<svg xmlns="http://www.w3.org/2000/svg" width="257.496" height="37.402" viewBox="0 0 257.496 37.402">
  <g id="Grupo_19" data-name="Grupo 19" transform="translate(-140.653 -605.078)">
    <path id="Trazado_18" data-name="Trazado 18" d="M366.256,642.439V607h21.912a16.708,16.708,0,0,1,10.634,4.677,18.584,18.584,0,0,1,5.184,12.181c0,6-1.9,10.615-5.876,14.1a18.549,18.549,0,0,1-9.73,4.454l-.1.023Zm4.5-4.512h17.28a14.568,14.568,0,0,0,7.091-3.346c2.986-2.63,4.368-6.042,4.368-10.723a14.406,14.406,0,0,0-3.942-9.07,12.444,12.444,0,0,0-7.381-3.255H370.753Z" transform="translate(-110.859 -0.944)" fill="#fff"/>
    <path id="Trazado_19" data-name="Trazado 19" d="M233.034,642.439V611.562h-14.12v-4.516h32.75v4.516h-14.12v30.877Z" transform="translate(-38.457 -0.967)" fill="#fff"/>
    <path id="Trazado_20" data-name="Trazado 20" d="M489.193,642.552c-11.638,0-21.095-8.364-21.095-18.636,0-10.3,9.456-18.653,21.095-18.653,11.654,0,21.124,8.354,21.124,18.653,0,10.272-9.47,18.636-21.124,18.636m0-32.777c-9.134,0-16.567,6.356-16.567,14.141s7.434,14.114,16.567,14.114c9.18,0,16.629-6.315,16.629-14.114s-7.449-14.141-16.629-14.141" transform="translate(-160.904 -0.091)" fill="#fff"/>
    <path id="Trazado_21" data-name="Trazado 21" d="M160.167,642.48c-7.252,0-12.745-1.746-19.514-6.228l2.492-3.766c6.911,4.568,11.6,5.5,16.9,5.5.383,0,.752,0,1.14-.021,9.414-.123,11.669-3.836,12.177-6.029l.013-.068c.618-2.325-1.14-4.2-2.98-5.188a9.452,9.452,0,0,0-2.333-.659A87.25,87.25,0,0,0,157,625.467c-1.2,0-2.092.015-2.429.026H154.4c-2.327-.039-5.5-.666-7.349-1.98-2.8-1.983-4.181-4.679-3.9-7.618.418-6.868,7.714-10.333,14.764-10.706.808-.072,1.611-.11,2.4-.11a28.988,28.988,0,0,1,15.841,4.938l-2.689,3.643a24.872,24.872,0,0,0-13.178-4.073c-.676,0-1.346.036-2,.1l-.1.015c-7.052.356-10.384,3.511-10.541,6.5v.114a4.09,4.09,0,0,0,2.024,3.857c1.121.69,2.888.777,4.766.815h.066c2.143,0,9.5.051,14.048.534a13.021,13.021,0,0,1,3.685,1.052.613.613,0,0,1,.159.069c4.3,2.234,6.419,6.294,5.357,10.357-1.962,8.4-12.181,9.424-16.492,9.486h-1.1" fill="#fff"/>
    <path id="Trazado_22" data-name="Trazado 22" d="M309.531,643.425c-6.328,0-10.995-1.49-13.87-4.41a10.939,10.939,0,0,1-3.039-8.093l.019-.112c-.019-.883-.019-18.42,0-23.773V607h4.5v24a6.6,6.6,0,0,0,1.744,4.853c1.954,2,5.62,3.05,10.57,3.05,5.184-.229,11.325-1.787,11.325-7.809V607h4.523v24.1c0,7.4-5.722,11.891-15.685,12.325Z" transform="translate(-74.675 -0.946)" fill="#fff"/>
    <rect id="Rectángulo_26" data-name="Rectángulo 26" width="4.518" height="35.44" transform="translate(297.891 606.056)" fill="#fff"/>
    <path id="Trazado_23" data-name="Trazado 23" d="M587.691,642.512V607.149h30.128v4.523h-25.61v10.278h15.216v4.523H592.209v16.041Z" transform="translate(-219.67 -1.017)" fill="#fff"/>
  </g>
</svg>
